HIERARCHY
ROOT joint_Root
{
	OFFSET 0.0 0.0 0.0
	CHANNELS 6 Xposition Yposition Zposition Zrotation Xrotation Yrotation 
	JOINT Hips
	{
		OFFSET -0.726466 93.3139 -2.00062
		CHANNELS 6 Xposition Yposition Zposition Zrotation Xrotation Yrotation 
		JOINT Spine
		{
			OFFSET 15.7357 0.0 0.0
			CHANNELS 6 Xposition Yposition Zposition Zrotation Xrotation Yrotation 
			JOINT Chest
			{
				OFFSET 8.98455 -0.406207 0.0
				CHANNELS 6 Xposition Yposition Zposition Zrotation Xrotation Yrotation 
				JOINT Neck
				{
					OFFSET 16.3773 0.0 0.0
					CHANNELS 6 Xposition Yposition Zposition Zrotation Xrotation Yrotation 
					JOINT Head
					{
						OFFSET 6.45672 0.0 0.0
						CHANNELS 6 Xposition Yposition Zposition Zrotation Xrotation Yrotation 
						End Site
						{
							OFFSET 0.0 0.0 0.0
						}
					}
				}
				JOINT Shoulder_L
				{
					OFFSET 12.9942 -0.242716 4.98039
					CHANNELS 6 Xposition Yposition Zposition Zrotation Xrotation Yrotation 
					JOINT UpperArm_L
					{
						OFFSET 5.34809 0.0 0.0
						CHANNELS 6 Xposition Yposition Zposition Zrotation Xrotation Yrotation 
						JOINT LowerArm_L
						{
							OFFSET 24.3286 1.87007e-05 0.0
							CHANNELS 6 Xposition Yposition Zposition Zrotation Xrotation Yrotation 
							JOINT Hand_L
							{
								OFFSET 22.2916 0.0 0.0
								CHANNELS 6 Xposition Yposition Zposition Zrotation Xrotation Yrotation 
								End Site
								{
									OFFSET 0.0 0.0 0.0
								}
							}
						}
					}
				}
				JOINT Shoulder_R
				{
					OFFSET 12.9945 -0.242716 -4.98039
					CHANNELS 6 Xposition Yposition Zposition Zrotation Xrotation Yrotation 
					JOINT UpperArm_R
					{
						OFFSET -5.34813 0.0 0.0
						CHANNELS 6 Xposition Yposition Zposition Zrotation Xrotation Yrotation 
						JOINT LowerArm_R
						{
							OFFSET -24.3289 0.000322201 0.0
							CHANNELS 6 Xposition Yposition Zposition Zrotation Xrotation Yrotation 
							JOINT Hand_R
							{
								OFFSET -22.2915 -0.000108084 0.0
								CHANNELS 6 Xposition Yposition Zposition Zrotation Xrotation Yrotation 
								End Site
								{
									OFFSET 0.0 0.0 0.0
								}
							}
						}
					}
				}
			}
		}
		JOINT UpperLeg_L
		{
			OFFSET -2.19248 -6.46944 0.0
			CHANNELS 6 Xposition Yposition Zposition Zrotation Xrotation Yrotation 
			JOINT LowerLeg_L
			{
				OFFSET 39.0811 0.0 -1.23785e-05
				CHANNELS 6 Xposition Yposition Zposition Zrotation Xrotation Yrotation 
				JOINT Foot_L
				{
					OFFSET 40.9854 0.0 -1.26872e-05
					CHANNELS 6 Xposition Yposition Zposition Zrotation Xrotation Yrotation 
					JOINT Toes_L
					{
						OFFSET 11.7543 0.0 0.0
						CHANNELS 6 Xposition Yposition Zposition Zrotation Xrotation Yrotation 
						End Site
						{
							OFFSET 0.0 0.0 0.0
						}
					}
				}
			}
		}
		JOINT UpperLeg_R
		{
			OFFSET -2.19251 6.46944 0.0
			CHANNELS 6 Xposition Yposition Zposition Zrotation Xrotation Yrotation 
			JOINT LowerLeg_R
			{
				OFFSET -39.0811 -0.00228153 -0.0401928
				CHANNELS 6 Xposition Yposition Zposition Zrotation Xrotation Yrotation 
				JOINT Foot_R
				{
					OFFSET -40.9854 0.0 0.0
					CHANNELS 6 Xposition Yposition Zposition Zrotation Xrotation Yrotation 
					JOINT Toes_R
					{
						OFFSET -11.7543 0.0 0.0
						CHANNELS 6 Xposition Yposition Zposition Zrotation Xrotation Yrotation 
						End Site
						{
							OFFSET 0.0 0.0 0.0
						}
					}
				}
			}
		}
	}
}
MOTION
Frames:	6
Frame Time:	0.0333333
0.000000 0.000000 0.000000 0.000000 0.000000 -0.000000 0.076997 92.098300 0.044189 88.036200 -0.938198 6.330710 15.735700 0.000005 -0.000001 83.717100 85.243400 -83.170600 8.984550 -0.406207 -0.000000 1.695600 -1.069440 1.107880 16.377300 -0.000001 -0.000001 2.493410 -2.580300 -0.172583 6.456720 -0.000001 -0.000000 6.732820 -3.103820 -1.519600 12.994200 -0.242716 4.980390 -89.782500 -0.704916 -72.849000 5.348090 -0.000007 -0.000001 -68.646600 38.064100 -15.110800 24.328600 0.000019 0.000005 1.246760 3.184930 -21.390800 22.291600 -0.000001 0.000005 4.982460 5.443690 -4.410890 12.994500 -0.242716 -4.980390 88.540500 4.873910 -73.307700 -5.348130 -0.000001 -0.000004 -65.708700 40.590200 -18.764200 -24.328900 0.000322 -0.000009 3.023570 10.526600 -16.130800 -22.291500 -0.000108 -0.000004 5.315970 5.355130 -1.535280 -2.192480 -6.469440 -0.000000 -175.357000 -8.784540 -0.403936 39.081100 -0.000007 -0.000012 -0.110644 0.248250 24.022400 40.985400 -0.000006 -0.000013 0.425719 3.914460 -67.432100 11.754300 -0.000000 0.000003 -0.000047 -0.000538 -16.598500 -2.192510 6.469440 -0.000001 178.490000 14.506100 -177.578000 -39.081100 -0.002282 -0.040193 -0.058976 0.168152 20.328500 -40.985400 0.000008 0.000006 2.324990 7.641770 -66.553200 -11.754300 -0.000006 -0.000006 -0.008285 -0.090343 -20.252200
0.000000 0.000000 0.000000 0.000000 0.000000 -0.000000 0.086865 92.083500 0.055300 88.009900 -1.101550 6.395270 15.735700 0.000005 -0.000001 83.287400 85.217000 -82.704000 8.984550 -0.406207 -0.000000 1.740880 -1.148180 1.183190 16.377300 -0.000001 -0.000001 2.408450 -2.524590 -0.120787 6.456720 -0.000001 -0.000000 6.636880 -2.900590 -1.737480 12.994200 -0.242716 4.980390 -89.713500 -0.930554 -72.883500 5.348090 -0.000007 -0.000001 -68.411600 37.389200 -15.834300 24.328600 0.000019 0.000005 1.590390 3.804090 -22.697800 22.291600 -0.000001 0.000005 2.460500 5.425970 -3.796320 12.994500 -0.242716 -4.980390 88.588600 4.709990 -73.297700 -5.348130 -0.000001 -0.000004 -63.659700 40.748600 -21.333000 -24.328900 0.000322 -0.000009 3.515890 11.401700 -17.268900 -22.291500 -0.000108 -0.000004 3.397660 5.370480 -2.006980 -2.192480 -6.469440 -0.000000 -175.309000 -8.900550 -0.350854 39.081100 -0.000007 -0.000012 -0.112336 0.250892 24.120300 40.985400 -0.000006 -0.000013 0.424521 3.876550 -67.505700 11.754300 -0.000000 0.000003 -0.000043 -0.000500 -16.597000 -2.192510 6.469440 -0.000001 178.485000 14.429000 -177.554000 -39.081100 -0.002282 -0.040193 -0.062094 0.175905 20.398800 -40.985400 0.000008 0.000006 2.208380 7.711750 -66.559500 -11.754300 -0.000006 -0.000006 -0.008205 -0.089699 -20.225900
0.000000 0.000000 0.000000 0.000000 0.000000 -0.000000 0.119702 92.091200 -0.048445 88.004700 -1.375510 6.400770 15.735700 0.000005 -0.000001 83.359500 85.201500 -82.740000 8.984550 -0.406207 -0.000000 1.773310 -1.141510 1.255630 16.377300 -0.000001 -0.000001 2.611720 -2.395580 -0.109864 6.456720 -0.000001 -0.000000 6.329870 -2.753020 -1.801700 12.994200 -0.242716 4.980390 -89.611500 -1.253080 -72.772700 5.348090 -0.000007 -0.000001 -67.223900 35.461600 -17.913500 24.328600 0.000019 0.000005 2.556570 5.329310 -25.674400 22.291600 -0.000001 0.000005 -0.714626 5.423900 -3.733180 12.994500 -0.242716 -4.980390 88.651500 4.445820 -73.108100 -5.348130 -0.000001 -0.000004 -60.761800 39.190800 -25.503600 -24.328900 0.000322 -0.000009 4.484870 12.843200 -19.438700 -22.291500 -0.000108 -0.000004 3.674490 5.393800 -2.729010 -2.192480 -6.469440 -0.000000 -175.315000 -9.119570 -0.386947 39.081100 -0.000007 -0.000012 -0.110945 0.247716 24.126400 40.985400 -0.000006 -0.000013 0.443350 3.817900 -67.454300 11.754300 -0.000000 0.000003 -0.000045 -0.000519 -16.597700 -2.192510 6.469440 -0.000001 178.510000 14.227600 -177.682000 -39.081100 -0.002282 -0.040193 -0.061316 0.173344 20.449600 -40.985400 0.000008 0.000006 2.223920 7.791550 -66.485000 -11.754300 -0.000006 -0.000006 -0.008106 -0.088897 -20.193200
0.000000 0.000000 0.000000 0.000000 0.000000 -0.000000 0.157333 92.104000 -0.272830 88.023300 -1.604410 6.545770 15.735700 0.000005 -0.000001 83.526100 85.162800 -82.872400 8.984550 -0.406207 -0.000000 1.853790 -1.123840 1.324360 16.377300 -0.000001 -0.000001 3.134640 -2.280780 -0.158803 6.456720 -0.000001 -0.000000 6.219310 -2.606710 -1.842670 12.994200 -0.242716 4.980390 -89.665400 -1.073590 -72.685900 5.348090 -0.000007 -0.000001 -62.828700 33.823800 -22.691200 24.328600 0.000019 0.000005 3.266050 5.579940 -30.400900 22.291600 -0.000001 0.000005 0.653928 5.447010 -4.508490 12.994500 -0.242716 -4.980390 88.706500 4.239150 -73.014500 -5.348130 -0.000001 -0.000004 -57.326000 35.520300 -30.873800 -24.328900 0.000322 -0.000009 5.204380 12.573600 -22.708600 -22.291500 -0.000108 -0.000004 6.420950 5.419110 -3.557170 -2.192480 -6.469440 -0.000000 -175.355000 -9.239110 -0.382771 39.081100 -0.000007 -0.000012 -0.109661 0.244607 24.147600 40.985400 -0.000006 -0.000013 0.453998 3.680110 -67.324400 11.754300 -0.000000 0.000003 -0.000048 -0.000542 -16.598600 -2.192510 6.469440 -0.000001 178.473000 14.146600 -177.774000 -39.081100 -0.002282 -0.040193 -0.061179 0.172014 20.554400 -40.985400 0.000008 0.000006 2.211640 7.908830 -66.348500 -11.754300 -0.000006 -0.000006 -0.008324 -0.090655 -20.264900
0.000000 0.000000 0.000000 0.000000 0.000000 -0.000000 0.202046 92.108000 -0.505796 88.007300 -1.756100 6.810800 15.735700 0.000005 -0.000001 84.128800 85.121200 -83.456800 8.984550 -0.406207 -0.000000 1.947000 -1.031600 1.360270 16.377300 -0.000001 -0.000001 3.779290 -2.192750 -0.104741 6.456720 -0.000001 -0.000000 6.589030 -2.553150 -1.772190 12.994200 -0.242716 4.980390 -89.696500 -0.973753 -72.689900 5.348090 -0.000007 -0.000001 -58.600000 29.288100 -28.374900 24.328600 0.000019 0.000005 4.358140 5.849880 -36.791800 22.291600 -0.000001 0.000005 4.394430 5.491470 -6.167190 12.994500 -0.242716 -4.980390 88.744400 4.122240 -73.043600 -5.348130 -0.000001 -0.000004 -53.846100 30.215900 -37.007000 -24.328900 0.000322 -0.000009 5.620620 11.125900 -27.028100 -22.291500 -0.000108 -0.000004 9.789160 5.440690 -4.297110 -2.192480 -6.469440 -0.000000 -175.322000 -9.349300 -0.307721 39.081100 -0.000007 -0.000012 -0.108931 0.241801 24.251500 40.985400 -0.000006 -0.000013 0.489789 3.674790 -67.230700 11.754300 -0.000000 0.000003 -0.000046 -0.000525 -16.598000 -2.192510 6.469440 -0.000001 178.403000 14.108800 -177.711000 -39.081100 -0.002282 -0.040193 -0.066138 0.184374 20.642500 -40.985400 0.000008 0.000006 2.118690 8.100390 -66.211000 -11.754300 -0.000006 -0.000006 -0.008365 -0.090985 -20.278400
0.000000 0.000000 0.000000 0.000000 0.000000 -0.000000 0.219376 92.112400 -0.725346 87.967500 -1.791820 7.114610 15.735700 0.000005 -0.000001 84.466000 85.110800 -83.787000 8.984550 -0.406207 -0.000000 1.973220 -0.976701 1.373470 16.377300 -0.000001 -0.000001 4.576790 -2.109460 0.028388 6.456720 -0.000001 -0.000000 7.202140 -2.543430 -1.695780 12.994200 -0.242716 4.980390 -89.686700 -1.000940 -72.617000 5.348090 -0.000007 -0.000001 -55.419000 22.819200 -34.484400 24.328600 0.000019 0.000005 4.459280 4.593170 -44.248500 22.291600 -0.000001 0.000005 7.507530 5.518850 -7.299580 12.994500 -0.242716 -4.980390 88.818700 3.906410 -73.160200 -5.348130 -0.000001 -0.000004 -51.361500 23.568300 -43.292600 -24.328900 0.000322 -0.000009 6.441970 10.263800 -32.367500 -22.291500 -0.000108 -0.000004 12.214100 5.447770 -4.556400 -2.192480 -6.469440 -0.000000 -175.243000 -9.473870 -0.206499 39.081100 -0.000007 -0.000012 -0.107069 0.236391 24.367300 40.985400 -0.000006 -0.000013 0.533891 3.745290 -67.138600 11.754300 -0.000000 0.000003 -0.000042 -0.000484 -16.596400 -2.192510 6.469440 -0.000001 178.301000 14.196800 -177.518000 -39.081100 -0.002282 -0.040193 -0.077386 0.214851 20.588100 -40.985400 0.000008 0.000006 1.659590 8.346640 -65.953600 -11.754300 -0.000006 -0.000006 -0.008236 -0.089949 -20.236100
